<svg width="57" height="54" viewBox="0 0 57 54" fill="none" xmlns="http://www.w3.org/2000/svg">
<path d="M0.23786 40.7687C-0.308242 28.8592 0.256949 17.0007 0.256949 5.0793C0.257529 3.21113 0.0368677 1.95636 1.79588 0.960005C3.55489 -0.0363503 7.00604 0.391454 9.2087 0.310586C13.3004 0.160365 13.7333 0.310618 17.4378 0.310618H32.5569C39.0027 0.310618 43.2227 0.0269917 47.028 0.0271126C48.6786 0.0269898 52.8966 -0.200265 55.5099 0.663246C56.6101 3.02654 55.9228 5.06073 55.9228 6.10116C55.9228 9.39155 56.5188 12.9726 56.6101 16.3198C56.7232 20.4713 56.9537 24.7402 56.9537 28.847C56.9537 32.0233 56.6101 35.2818 56.6101 38.4852C56.6101 42.8036 56.9537 45.9166 56.9537 50.2897C56.9537 54.4804 51.4471 53.1849 48.5542 53.1849H38.1974C33.0544 53.1849 28.0611 54.5245 23.1074 53.769C18.9263 53.1314 14.9144 53.6975 10.7182 53.7879C8.29064 53.8402 3.94634 54.0298 1.63298 53.1849C0.0715785 52.6147 0.23786 51.0724 0.237177 48.8057C0.236323 45.491 0.375095 43.7616 0.23786 40.7687Z" fill="#FF4630"/>
<path fill-rule="evenodd" clip-rule="evenodd" d="M10.9244 21.4395C10.613 21.4289 9.81838 21.4236 8.54063 21.4236H6.64C6.47896 21.4236 6.36613 21.4555 6.30169 21.5194C6.23724 21.5726 6.2051 21.6737 6.2051 21.8227V26.503C5.53708 26.4068 4.73579 26.2884 3.74667 26.1415C3.26859 26.0706 2.82282 26.3972 2.75123 26.8712C2.67963 27.3451 3.00918 27.7869 3.48726 27.8579C4.59699 28.0226 5.47783 28.1529 6.2051 28.2567V32.7915C6.2051 32.9618 6.24276 33.0842 6.31792 33.1587C6.39308 33.2332 6.5111 33.2705 6.67214 33.2705H10.9083C12.2826 33.2705 13.4477 33.0203 14.4034 32.52C15.3591 32.0092 16.0784 31.3066 16.5617 30.4125C16.8375 29.9021 17.0347 29.3465 17.1531 28.7459C17.637 28.7113 18.1298 28.6787 18.6311 28.6477V32.8713C18.6311 33.0097 18.6633 33.1109 18.7277 33.1747C18.7922 33.2386 18.905 33.2705 19.066 33.2705H27.683C27.8119 33.2705 27.9085 33.2386 27.973 33.1747C28.0374 33.1109 28.0695 33.0257 28.0695 32.9192V30.9554C28.0695 30.7531 27.9515 30.6521 27.7153 30.6521H22.4806C22.4055 30.6521 22.3517 30.6361 22.3196 30.6041C22.298 30.5722 22.2873 30.5137 22.2873 30.4285V28.8319C22.2873 28.768 22.3089 28.7148 22.3517 28.6723C22.4055 28.6296 22.4699 28.6084 22.5451 28.6084H25.5248C25.7181 28.6084 25.8147 28.5179 25.8147 28.3369V28.3099C27.0071 28.2655 28.2176 28.2235 29.4371 28.1819V32.9192C29.4371 33.015 29.4692 33.1002 29.5337 33.1747C29.6088 33.2386 29.7001 33.2705 29.8075 33.2705H34.8973C36.6367 33.2705 37.9252 33.0097 38.7628 32.4882C39.611 31.9559 40.0352 31.1417 40.0352 30.0453C40.0352 29.3534 39.8527 28.7893 39.4876 28.3529C39.3337 28.1689 39.1349 27.9953 38.8912 27.8321C40.4639 27.7932 42.2282 27.8102 44.0253 27.8372V32.9511C44.0253 33.164 44.1219 33.2705 44.3152 33.2705H47.3754C47.472 33.2705 47.5472 33.2439 47.6009 33.1907C47.6546 33.1268 47.6814 33.0364 47.6814 32.9192V27.8913C49.0809 27.906 50.4238 27.9061 51.6156 27.8672C52.0988 27.8514 52.4776 27.4503 52.4616 26.9713C52.4457 26.4923 52.0411 26.1168 51.5578 26.1327C50.3918 26.1707 49.0726 26.1704 47.6814 26.1557V24.1538C47.6814 24.0474 47.7459 23.9941 47.8748 23.9941H50.7255C50.9619 23.9941 51.0799 23.893 51.0799 23.6908V21.7908C51.0799 21.6844 51.0424 21.5992 50.9673 21.5353C50.9028 21.4608 50.8061 21.4236 50.6773 21.4236H41.0456C40.9167 21.4236 40.8146 21.4608 40.7394 21.5353C40.6751 21.5992 40.6428 21.6844 40.6428 21.7908V23.6908C40.6428 23.893 40.7664 23.9941 41.0133 23.9941H43.848C43.9662 23.9941 44.0253 24.0686 44.0253 24.2177V26.1016C42.3657 26.0767 40.7068 26.06 39.1917 26.0896C39.2224 26.0565 39.2511 26.0232 39.2782 25.9899C39.5896 25.5961 39.7453 25.1171 39.7453 24.5529C39.7453 23.5205 39.3104 22.7435 38.4406 22.2219C37.5816 21.6897 36.3146 21.4236 34.6395 21.4236H29.8397C29.7216 21.4236 29.6249 21.4661 29.5497 21.5513C29.4746 21.6259 29.4371 21.7216 29.4371 21.8387V26.4451C28.2202 26.4868 27.0093 26.5287 25.8147 26.5733V26.3571C25.8147 26.1443 25.7019 26.0378 25.4764 26.0378H22.5772C22.4913 26.0378 22.4215 26.0112 22.3678 25.958C22.3142 25.8941 22.2873 25.809 22.2873 25.7025V24.3454C22.2873 24.1431 22.4108 24.042 22.6577 24.042H27.4898C27.7689 24.042 27.9085 23.8983 27.9085 23.611L27.9246 21.7589C27.9246 21.5353 27.828 21.4236 27.6346 21.4236H18.9371C18.7331 21.4236 18.6311 21.546 18.6311 21.7908V26.9091C18.174 26.9371 17.7234 26.9663 17.2803 26.9972C17.2183 25.3994 16.6834 24.111 15.6758 23.132C14.602 22.0782 13.0182 21.514 10.9244 21.4395ZM13.4503 27.0603C13.4245 26.0995 13.2161 25.3755 12.8249 24.8882C12.4062 24.3667 11.7942 24.0686 10.9888 23.9941L10.0224 23.9302C9.9687 23.9302 9.92569 23.9463 9.89354 23.9782C9.87211 24.0101 9.86124 24.0686 9.86124 24.1538V26.9234C10.3874 26.9544 10.9465 26.9731 11.7216 26.9991C12.2008 27.0152 12.7627 27.0341 13.4503 27.0603ZM9.86124 28.6615V30.5243C9.86124 30.6201 9.87747 30.6839 9.90961 30.7159C9.94176 30.7478 10.0008 30.7638 10.0867 30.7638H10.1995C11.2625 30.7638 12.0679 30.4924 12.6156 29.9495C12.9099 29.6577 13.1266 29.2713 13.2658 28.7902C12.6706 28.7678 12.1656 28.7507 11.7237 28.7357L11.708 28.7351L11.7054 28.735C10.9499 28.7094 10.3799 28.69 9.86124 28.6615ZM34.8973 26.0538C35.2731 26.0538 35.5737 25.9526 35.7992 25.7504C36.0247 25.5481 36.1373 25.2874 36.1373 24.9681C36.1373 24.6274 36.0086 24.3507 35.7508 24.1378C35.4932 23.9249 35.171 23.8185 34.7844 23.8185H33.4637C33.3241 23.8185 33.2275 23.8451 33.1737 23.8983C33.1202 23.9409 33.0932 24.0208 33.0932 24.1378V25.7025C33.0932 25.8302 33.1146 25.9208 33.1577 25.9739C33.2007 26.0271 33.2705 26.0538 33.3671 26.0538H34.8973ZM34.8166 30.8756C35.2568 30.8756 35.6005 30.7531 35.8474 30.5084C36.1052 30.2635 36.2341 29.9761 36.2341 29.6462C36.2341 29.3162 36.1106 29.0448 35.8636 28.8319C35.6166 28.619 35.2945 28.5125 34.8973 28.5125H33.4637C33.3241 28.5125 33.2275 28.5392 33.1737 28.5924C33.1202 28.6456 33.0932 28.7308 33.0932 28.8478V30.5243C33.0932 30.6521 33.1146 30.7425 33.1577 30.7957C33.2007 30.849 33.2705 30.8756 33.3671 30.8756H34.8166Z" fill="white"/>
<path fill-rule="evenodd" clip-rule="evenodd" d="M10.9244 21.4395C10.613 21.4289 9.81838 21.4236 8.54063 21.4236H6.64C6.47896 21.4236 6.36613 21.4555 6.30169 21.5194C6.23724 21.5726 6.2051 21.6737 6.2051 21.8227V26.503C5.53708 26.4068 4.73579 26.2884 3.74667 26.1415C3.26859 26.0706 2.82282 26.3972 2.75123 26.8712C2.67963 27.3451 3.00918 27.7869 3.48726 27.8579C4.59699 28.0226 5.47783 28.1529 6.2051 28.2567V32.7915C6.2051 32.9618 6.24276 33.0842 6.31792 33.1587C6.39308 33.2332 6.5111 33.2705 6.67214 33.2705H10.9083C12.2826 33.2705 13.4477 33.0203 14.4034 32.52C15.3591 32.0092 16.0784 31.3066 16.5617 30.4125C16.8375 29.9021 17.0347 29.3465 17.1531 28.7459C17.637 28.7113 18.1298 28.6787 18.6311 28.6477V32.8713C18.6311 33.0097 18.6633 33.1109 18.7277 33.1747C18.7922 33.2386 18.905 33.2705 19.066 33.2705H27.683C27.8119 33.2705 27.9085 33.2386 27.973 33.1747C28.0374 33.1109 28.0695 33.0257 28.0695 32.9192V30.9554C28.0695 30.7531 27.9515 30.6521 27.7153 30.6521H22.4806C22.4055 30.6521 22.3517 30.6361 22.3196 30.6041C22.298 30.5722 22.2873 30.5137 22.2873 30.4285V28.8319C22.2873 28.768 22.3089 28.7148 22.3517 28.6723C22.4055 28.6296 22.4699 28.6084 22.5451 28.6084H25.5248C25.7181 28.6084 25.8147 28.5179 25.8147 28.3369V28.3099C27.0071 28.2655 28.2176 28.2235 29.4371 28.1819V32.9192C29.4371 33.015 29.4692 33.1002 29.5337 33.1747C29.6088 33.2386 29.7001 33.2705 29.8075 33.2705H34.8973C36.6367 33.2705 37.9252 33.0097 38.7628 32.4882C39.611 31.9559 40.0352 31.1417 40.0352 30.0453C40.0352 29.3534 39.8527 28.7893 39.4876 28.3529C39.3337 28.1689 39.1349 27.9953 38.8912 27.8321C40.4639 27.7932 42.2282 27.8102 44.0253 27.8372V32.9511C44.0253 33.164 44.1219 33.2705 44.3152 33.2705H47.3754C47.472 33.2705 47.5472 33.2439 47.6009 33.1907C47.6546 33.1268 47.6814 33.0364 47.6814 32.9192V27.8913C49.0809 27.906 50.4238 27.9061 51.6156 27.8672C52.0988 27.8514 52.4776 27.4503 52.4616 26.9713C52.4457 26.4923 52.0411 26.1168 51.5578 26.1327C50.3918 26.1707 49.0726 26.1704 47.6814 26.1557V24.1538C47.6814 24.0474 47.7459 23.9941 47.8748 23.9941H50.7255C50.9619 23.9941 51.0799 23.893 51.0799 23.6908V21.7908C51.0799 21.6844 51.0424 21.5992 50.9673 21.5353C50.9028 21.4608 50.8061 21.4236 50.6773 21.4236H41.0456C40.9167 21.4236 40.8146 21.4608 40.7394 21.5353C40.6751 21.5992 40.6428 21.6844 40.6428 21.7908V23.6908C40.6428 23.893 40.7664 23.9941 41.0133 23.9941H43.848C43.9662 23.9941 44.0253 24.0686 44.0253 24.2177V26.1016C42.3657 26.0767 40.7068 26.06 39.1917 26.0896C39.2224 26.0565 39.2511 26.0232 39.2782 25.9899C39.5896 25.5961 39.7453 25.1171 39.7453 24.5529C39.7453 23.5205 39.3104 22.7435 38.4406 22.2219C37.5816 21.6897 36.3146 21.4236 34.6395 21.4236H29.8397C29.7216 21.4236 29.6249 21.4661 29.5497 21.5513C29.4746 21.6259 29.4371 21.7216 29.4371 21.8387V26.4451C28.2202 26.4868 27.0093 26.5287 25.8147 26.5733V26.3571C25.8147 26.1443 25.7019 26.0378 25.4764 26.0378H22.5772C22.4913 26.0378 22.4215 26.0112 22.3678 25.958C22.3142 25.8941 22.2873 25.809 22.2873 25.7025V24.3454C22.2873 24.1431 22.4108 24.042 22.6577 24.042H27.4898C27.7689 24.042 27.9085 23.8983 27.9085 23.611L27.9246 21.7589C27.9246 21.5353 27.828 21.4236 27.6346 21.4236H18.9371C18.7331 21.4236 18.6311 21.546 18.6311 21.7908V26.9091C18.174 26.9371 17.7234 26.9663 17.2803 26.9972C17.2183 25.3994 16.6834 24.111 15.6758 23.132C14.602 22.0782 13.0182 21.514 10.9244 21.4395ZM13.4503 27.0603C13.4245 26.0995 13.2161 25.3755 12.8249 24.8882C12.4062 24.3667 11.7942 24.0686 10.9888 23.9941L10.0224 23.9302C9.9687 23.9302 9.92569 23.9463 9.89354 23.9782C9.87211 24.0101 9.86124 24.0686 9.86124 24.1538V26.9234C10.3874 26.9544 10.9465 26.9731 11.7216 26.9991C12.2008 27.0152 12.7627 27.0341 13.4503 27.0603ZM9.86124 28.6615V30.5243C9.86124 30.6201 9.87747 30.6839 9.90961 30.7159C9.94176 30.7478 10.0008 30.7638 10.0867 30.7638H10.1995C11.2625 30.7638 12.0679 30.4924 12.6156 29.9495C12.9099 29.6577 13.1266 29.2713 13.2658 28.7902C12.6706 28.7678 12.1656 28.7507 11.7237 28.7357L11.708 28.7351L11.7054 28.735C10.9499 28.7094 10.3799 28.69 9.86124 28.6615ZM34.8973 26.0538C35.2731 26.0538 35.5737 25.9526 35.7992 25.7504C36.0247 25.5481 36.1373 25.2874 36.1373 24.9681C36.1373 24.6274 36.0086 24.3507 35.7508 24.1378C35.4932 23.9249 35.171 23.8185 34.7844 23.8185H33.4637C33.3241 23.8185 33.2275 23.8451 33.1737 23.8983C33.1202 23.9409 33.0932 24.0208 33.0932 24.1378V25.7025C33.0932 25.8302 33.1146 25.9208 33.1577 25.9739C33.2007 26.0271 33.2705 26.0538 33.3671 26.0538H34.8973ZM34.8166 30.8756C35.2568 30.8756 35.6005 30.7531 35.8474 30.5084C36.1052 30.2635 36.2341 29.9761 36.2341 29.6462C36.2341 29.3162 36.1106 29.0448 35.8636 28.8319C35.6166 28.619 35.2945 28.5125 34.8973 28.5125H33.4637C33.3241 28.5125 33.2275 28.5392 33.1737 28.5924C33.1202 28.6456 33.0932 28.7308 33.0932 28.8478V30.5243C33.0932 30.6521 33.1146 30.7425 33.1577 30.7957C33.2007 30.849 33.2705 30.8756 33.3671 30.8756H34.8166Z" fill="white"/>
</svg>
