<svg width="51" height="48" viewBox="0 0 51 48" fill="none" xmlns="http://www.w3.org/2000/svg">
<path d="M11.4507 22.1228C11.8 22.556 11.9861 23.1995 12.0091 24.0536C11.3951 24.0303 10.8935 24.0135 10.4656 23.9992C9.77352 23.9761 9.27433 23.9594 8.80457 23.9319V21.47C8.80457 21.3943 8.81428 21.3423 8.83341 21.3139C8.86211 21.2855 8.90052 21.2713 8.9485 21.2713L9.81135 21.3281C10.5304 21.3943 11.0768 21.6592 11.4507 22.1228Z" fill="#FF4630"/>
<path d="M8.80457 27.1327V25.4769C9.26766 25.5022 9.77656 25.5195 10.4511 25.5422L10.4534 25.5423L10.4675 25.5428L10.4985 25.5439C10.8857 25.557 11.3269 25.5719 11.8443 25.5913C11.7201 26.0189 11.5266 26.3624 11.2638 26.6217C10.7748 27.1043 10.0557 27.3456 9.10663 27.3456H9.0059C8.92922 27.3456 8.87646 27.3314 8.84776 27.303C8.81906 27.2746 8.80457 27.2179 8.80457 27.1327Z" fill="#FF4630"/>
<path d="M31.9635 22.8892C31.7621 23.069 31.4937 23.1589 31.1581 23.1589H29.7919C29.7057 23.1589 29.6433 23.1352 29.6049 23.0879C29.5665 23.0407 29.5474 22.9602 29.5474 22.8467V21.4558C29.5474 21.3518 29.5715 21.2808 29.6193 21.2429C29.6673 21.1956 29.7535 21.172 29.8782 21.172H31.0574C31.4025 21.172 31.6902 21.2666 31.9203 21.4558C32.1504 21.6451 32.2654 21.891 32.2654 22.1939C32.2654 22.4776 32.1648 22.7094 31.9635 22.8892Z" fill="#FF4630"/>
<path d="M32.0065 27.1185C31.786 27.3361 31.4792 27.4449 31.0861 27.4449H29.7919C29.7057 27.4449 29.6433 27.4213 29.6049 27.3739C29.5665 27.3267 29.5474 27.2463 29.5474 27.1327V25.6425C29.5474 25.5384 29.5715 25.4628 29.6193 25.4154C29.6673 25.3681 29.7535 25.3445 29.8782 25.3445H31.1581C31.5128 25.3445 31.8004 25.4391 32.021 25.6283C32.2415 25.8176 32.3518 26.0588 32.3518 26.3521C32.3518 26.6454 32.2367 26.9009 32.0065 27.1185Z" fill="#FF4630"/>
<path fill-rule="evenodd" clip-rule="evenodd" d="M0.114643 15.225C0.00187758 22.2293 -0.110743 29.2242 0.212335 36.2389C0.290749 37.9413 0.268283 39.1838 0.242193 40.63C0.227409 41.4438 0.211465 42.322 0.211755 43.3828C0.211755 43.5655 0.210596 43.7429 0.209436 43.9149C0.198131 45.6392 0.190304 46.8146 1.45798 47.2755C3.3505 47.9635 6.76522 47.8798 8.99097 47.8252C9.19461 47.8201 9.38811 47.8154 9.56973 47.8115C10.6411 47.7885 11.6991 47.731 12.7508 47.6737C15.3775 47.5308 17.966 47.39 20.6316 47.7947C23.3153 48.2021 26.0119 47.924 28.7437 47.6422C30.514 47.4596 32.2991 47.2755 34.1048 47.2755H43.3519C43.8149 47.2755 44.3528 47.3125 44.9238 47.3518C47.5393 47.5316 50.8514 47.7594 50.8514 44.7019C50.8514 42.7523 50.7743 41.0844 50.6974 39.4217C50.621 37.7695 50.5447 36.1224 50.5447 34.2091C50.5447 32.7824 50.6217 31.3433 50.6985 29.9072C50.7751 28.4773 50.8514 27.0505 50.8514 25.6418C50.8514 23.212 50.7603 20.7185 50.6695 18.2344C50.6239 16.9862 50.5784 15.7406 50.5446 14.5065C50.5072 13.1404 50.3747 11.7305 50.2425 10.3218C50.0867 8.66265 49.9311 7.00516 49.9311 5.42328C49.9311 5.20614 49.9648 4.94023 50.004 4.63334C50.1312 3.63312 50.314 2.197 49.5623 0.589578C47.5737 -0.0646177 44.5444 -0.0145535 42.7804 0.0146268C42.4747 0.0197047 42.207 0.024139 41.9893 0.024139C40.5125 0.0240675 38.9657 0.0717 37.2162 0.125555C34.9407 0.195573 32.3223 0.276176 29.0686 0.276176H15.5695C14.3501 0.276176 13.5278 0.25801 12.7924 0.241775C11.533 0.213954 10.5285 0.191783 8.22204 0.276105C7.71445 0.294629 7.1325 0.283114 6.52157 0.270956C4.76529 0.235982 2.76855 0.196288 1.6035 0.853345C0.195812 1.64715 0.207987 2.62547 0.22538 4.01547C0.227409 4.17632 0.229438 4.34275 0.229438 4.51497C0.229438 8.09005 0.172041 11.6588 0.114643 15.225ZM7.62546 19.0432C8.7663 19.0432 9.4758 19.0479 9.7538 19.0573C11.6233 19.1236 13.0373 19.6251 13.9961 20.5618C14.8958 21.4319 15.3734 22.5772 15.4288 23.9975C15.8243 23.9701 16.2267 23.944 16.6348 23.9192V19.3696C16.6348 19.152 16.7259 19.0432 16.9081 19.0432H24.6737C24.8463 19.0432 24.9325 19.1425 24.9325 19.3412L24.9182 20.9875C24.9182 21.2429 24.7935 21.3707 24.5444 21.3707H20.23C20.0096 21.3707 19.8993 21.4606 19.8993 21.6404V22.8467C19.8993 22.9413 19.9233 23.017 19.9711 23.0738C20.0191 23.121 20.0814 23.1447 20.1581 23.1447H22.7467C22.948 23.1447 23.0487 23.2393 23.0487 23.4285V23.6207C24.1154 23.5811 25.1965 23.5438 26.283 23.5068V19.4121C26.283 19.3081 26.3165 19.223 26.3836 19.1567C26.4507 19.081 26.5371 19.0432 26.6424 19.0432H30.928C32.4236 19.0432 33.5549 19.2797 34.3218 19.7528C35.0984 20.2164 35.4867 20.9071 35.4867 21.8248C35.4867 22.3263 35.3477 22.7521 35.0697 23.1021C35.0455 23.1317 35.0199 23.1613 34.9925 23.1908C36.3452 23.1645 37.8264 23.1793 39.3082 23.2014V21.5268C39.3082 21.3943 39.2554 21.3281 39.1499 21.3281H36.6189C36.3984 21.3281 36.2881 21.2382 36.2881 21.0585V19.3696C36.2881 19.275 36.317 19.1993 36.3744 19.1425C36.4415 19.0763 36.5326 19.0432 36.6477 19.0432H45.2475C45.3624 19.0432 45.4488 19.0763 45.5064 19.1425C45.5735 19.1993 45.607 19.275 45.607 19.3696V21.0585C45.607 21.2382 45.5016 21.3281 45.2906 21.3281H42.7452C42.6301 21.3281 42.5726 21.3754 42.5726 21.47V23.2495C43.8147 23.2626 44.9925 23.2629 46.0337 23.229C46.4652 23.215 46.8264 23.5487 46.8406 23.9745C46.8549 24.4003 46.5166 24.7568 46.0853 24.7708C45.0211 24.8054 43.8221 24.8053 42.5726 24.7923V29.2615C42.5726 29.3656 42.5487 29.446 42.5007 29.5028C42.4527 29.5501 42.3856 29.5737 42.2994 29.5737H39.567C39.3944 29.5737 39.3082 29.4791 39.3082 29.2899V24.7442C37.7036 24.7202 36.1284 24.705 34.7242 24.7396C34.9417 24.8847 35.1193 25.039 35.2567 25.2026C35.5827 25.5905 35.7456 26.0919 35.7456 26.7069C35.7456 27.6815 35.3669 28.4053 34.6095 28.8784C33.8616 29.342 32.7112 29.5737 31.1581 29.5737H26.6137C26.5178 29.5737 26.4363 29.5454 26.3692 29.4886C26.3117 29.4223 26.283 29.3467 26.283 29.2615V25.0505C25.1942 25.0876 24.1133 25.1248 23.0487 25.1644V25.1883C23.0487 25.3492 22.9625 25.4296 22.7899 25.4296H20.1294C20.0623 25.4296 20.0048 25.4485 19.9568 25.4864C19.9185 25.5243 19.8993 25.5715 19.8993 25.6283V27.0475C19.8993 27.1232 19.9088 27.1752 19.9281 27.2036C19.9568 27.232 20.0048 27.2463 20.0719 27.2463H24.7457C24.9566 27.2463 25.062 27.3361 25.062 27.5159V29.2615C25.062 29.3561 25.0333 29.4319 24.9757 29.4886C24.9182 29.5454 24.832 29.5737 24.7169 29.5737H17.0231C16.8794 29.5737 16.7786 29.5454 16.7211 29.4886C16.6635 29.4319 16.6348 29.342 16.6348 29.2189V25.4646C16.1873 25.4922 15.7472 25.5211 15.3151 25.5519C15.2095 26.0858 15.0334 26.5796 14.7871 27.0333C14.3556 27.8281 13.7134 28.4526 12.8601 28.9067C12.0068 29.3514 10.9665 29.5737 9.73945 29.5737H5.95716C5.81338 29.5737 5.708 29.5406 5.64089 29.4744C5.57379 29.4082 5.54016 29.2994 5.54016 29.148V25.117C4.89081 25.0248 4.10435 24.909 3.11352 24.7626C2.68666 24.6994 2.39243 24.3068 2.45635 23.8855C2.52027 23.4642 2.91828 23.1738 3.34514 23.2369C4.22828 23.3674 4.94372 23.4727 5.54016 23.5582V19.398C5.54016 19.2655 5.56886 19.1756 5.6264 19.1284C5.68394 19.0716 5.78468 19.0432 5.92846 19.0432H7.62546Z" fill="#FF4630"/>
</svg>
